<?xml version="1.0" encoding="UTF-8"?>
<svg xmlns="http://www.w3.org/2000/svg" width="120" height="80" viewBox="0 0 120 80" role="img" aria-labelledby="title desc">
  <title id="title">Wall Tile Mint</title>
  <desc id="desc">Building part pattern: Wall Tile Mint</desc>
  <rect x="6" y="10" width="108" height="62" rx="2" fill="#9ac9be" stroke="#3f685f" stroke-width="2"/>
  <rect x="6" y="10" width="108" height="6" fill="#7db4a8"/>
  <rect x="6" y="66" width="108" height="6" fill="#7db4a8"/>
  <g fill="none" stroke="#4f7f75" stroke-width="1.5" opacity="0.8">
    <rect x="14" y="20" width="18" height="12"/><rect x="34" y="20" width="18" height="12"/><rect x="54" y="20" width="18" height="12"/><rect x="74" y="20" width="18" height="12"/><rect x="94" y="20" width="16" height="12"/>
    <rect x="14" y="34" width="18" height="12"/><rect x="34" y="34" width="18" height="12"/><rect x="54" y="34" width="18" height="12"/><rect x="74" y="34" width="18" height="12"/><rect x="94" y="34" width="16" height="12"/>
    <rect x="14" y="48" width="18" height="12"/><rect x="34" y="48" width="18" height="12"/><rect x="54" y="48" width="18" height="12"/><rect x="74" y="48" width="18" height="12"/><rect x="94" y="48" width="16" height="12"/>
  </g>
</svg>
