<?xml version="1.0" encoding="UTF-8"?>
<svg xmlns="http://www.w3.org/2000/svg" width="120" height="80" viewBox="0 0 120 80" role="img" aria-labelledby="title desc">
  <title id="title">Wall Stone Gray</title>
  <desc id="desc">Building part pattern: Wall Stone Gray</desc>
  <rect x="6" y="10" width="108" height="62" rx="2" fill="#c6ccd0" stroke="#6f7980" stroke-width="2"/>
  <rect x="6" y="10" width="108" height="6" fill="#aeb6bb"/>
  <rect x="6" y="66" width="108" height="6" fill="#aeb6bb"/>
  <g fill="none" stroke="#7f8a91" stroke-width="1.6" opacity="0.75">
    <polygon points="14,20 30,18 34,30 18,32"/>
    <polygon points="40,18 58,16 62,28 44,30"/>
    <polygon points="68,20 88,18 92,30 72,32"/>
    <polygon points="22,38 42,36 46,50 26,52"/>
    <polygon points="52,38 74,36 78,50 56,52"/>
    <polygon points="82,38 104,36 108,50 86,52"/>
  </g>
</svg>
